<svg xmlns="http://www.w3.org/2000/svg" viewBox="0 0 24 24" fill="none" stroke="currentColor" stroke-width="1.5" stroke-linecap="round" stroke-linejoin="round">
  <path d="M3 18c1.5-3 4-5 7-5.5M10 12.5c2-.5 4.5 0 6 1.5 1.5 1.5 2 3.5 1.5 5.5"/>
  <path d="M17.5 19.5c-2 .5-4 0-5.5-1"/>
  <path d="M10 12.5c-1-2-.5-4.5 1.5-6C13 5 15 4.5 17 5"/>
  <path d="M17 5c.5 1 .5 2 0 3"/>
  <path d="M19 4c1-.5 2-.5 2.5 0"/>
  <circle cx="14.5" cy="8.5" r="0.5" fill="currentColor" stroke="none"/>
  <path d="M7 13c-1.5.5-3 1.5-4 3"/>
</svg>
